<?xml version="1.0" encoding="UTF-8" standalone="no"?> <svg width="24" height="24" viewBox="0 0 24 24" fill="none" xmlns="http://www.w3.org/2000/svg">
<g clip-path="url(#clip0)">
<path fill-rule="evenodd" clip-rule="evenodd" d="M4.70711 5.29289C5.09763 5.68342 5.09763 6.31658 4.70711 6.70711L3.41421 8H14C14.5523 8 15 8.44772 15 9C15 9.55228 14.5523 10 14 10H3.41421L4.70711 11.2929C5.09763 11.6834 5.09763 12.3166 4.70711 12.7071C4.31658 13.0976 3.68342 13.0976 3.29289 12.7071L0.292893 9.70711C-0.0976311 9.31658 -0.0976311 8.68342 0.292893 8.29289L3.29289 5.29289C3.68342 4.90237 4.31658 4.90237 4.70711 5.29289ZM19.2929 11.2929C19.6834 10.9024 20.3166 10.9024 20.7071 11.2929L23.7071 14.2929C24.0976 14.6834 24.0976 15.3166 23.7071 15.7071L20.7071 18.7071C20.3166 19.0976 19.6834 19.0976 19.2929 18.7071C18.9024 18.3166 18.9024 17.6834 19.2929 17.2929L20.5858 16H10C9.44771 16 9 15.5523 9 15C9 14.4477 9.44771 14 10 14H20.5858L19.2929 12.7071C18.9024 12.3166 18.9024 11.6834 19.2929 11.2929Z" fill="#8024F3"/>
</g>
<defs>
<clipPath id="clip0">
<rect width="24" height="24" fill="white"/>
</clipPath>
</defs>
</svg>
